<svg width="256" height="256" viewBox="0 0 200 200" xmlns="http://www.w3.org/2000/svg">
  <defs>
    <!-- 全息发光滤镜 -->
    <filter id="glow" x="-50%" y="-50%" width="200%" height="200%">
      <feGaussianBlur stdDeviation="1.5" result="blur"/>
      <feColorMatrix in="blur" type="matrix" values="
        1 0 0 0 0
        0 1 0 0 0
        0 0 1 0 0
        0 0 0 15 -6" result="glow"/>
      <feMerge>
        <feMergeNode in="glow"/>
        <feMergeNode in="SourceGraphic"/>
      </feMerge>
    </filter>

    <!-- 层板渐变 -->
    <linearGradient id="shelf-grad" x1="0%" y1="0%" x2="100%" y2="0%">
      <stop offset="0%" style="stop-color:#00f5ff;stop-opacity:0.3"/>
      <stop offset="50%" style="stop-color:#00f5ff;stop-opacity:1"/>
      <stop offset="100%" style="stop-color:#00f5ff;stop-opacity:0.3"/>
    </linearGradient>

    <!-- 圆形遮罩 -->
    <clipPath id="circle-mask">
      <circle cx="100" cy="100" r="90"/>
    </clipPath>
  </defs>

  <!-- 主圆形基底（深色玻璃质感） -->
  <circle cx="100" cy="100" r="90" fill="#0a1428" stroke="#00f5ff" stroke-width="2" filter="url(#glow)"/>

  <!-- 背景六边形网格 -->
  <g clip-path="url(#circle-mask)" opacity="0.12">
    <path d="M50 50 L100 30 L150 50 L150 100 L100 120 L50 100 Z" fill="none" stroke="#00f5ff" stroke-width="0.5"/>
    <path d="M50 100 L100 80 L150 100 L150 150 L100 170 L50 150 Z" fill="none" stroke="#bc13fe" stroke-width="0.5"/>
    <line x1="100" y1="30" x2="100" y2="170" stroke="#00f5ff" stroke-width="0.3"/>
    <line x1="50" y1="75" x2="150" y2="75" stroke="#bc13fe" stroke-width="0.3"/>
    <line x1="50" y1="125" x2="150" y2="125" stroke="#00f5ff" stroke-width="0.3"/>
  </g>

  <!-- 书架结构 -->
  <g filter="url(#glow)">
    <!-- 左侧主立柱（紫色能量管） -->
    <rect x="35" y="45" width="3" height="110" rx="1.5" fill="#bc13fe" opacity="0.9"/>

    <!-- 三层全息层板 -->
    <line x1="38" y1="65" x2="162" y2="65" stroke="url(#shelf-grad)" stroke-width="2" stroke-linecap="round"/>
    <line x1="38" y1="105" x2="162" y2="105" stroke="url(#shelf-grad)" stroke-width="2" stroke-linecap="round"/>
    <line x1="38" y1="145" x2="162" y2="145" stroke="url(#shelf-grad)" stroke-width="2" stroke-linecap="round"/>
  </g>

  <!-- Git 分支网络 -->
  <g filter="url(#glow)">
    <!-- 主节点 -->
    <circle cx="65" cy="55" r="5" fill="#00f5ff"/>

    <!-- 连接线 -->
    <path d="M65 60 L65 75 M65 75 L85 75 L85 60" stroke="#00f5ff" stroke-width="1.5" fill="none" stroke-linecap="round"/>

    <!-- 节点 2 (GitHub) -->
    <circle cx="85" cy="58" r="4" fill="#bc13fe"/>

    <!-- 连接线 2 -->
    <path d="M65 75 L105 75 L105 60" stroke="#bc13fe" stroke-width="1.5" fill="none" stroke-linecap="round" stroke-dasharray="2,2" opacity="0.7"/>

    <!-- 节点 3 (Gitee) -->
    <circle cx="105" cy="58" r="3.5" fill="#00f5ff" opacity="0.8"/>
  </g>

  <!-- 中层代码块 -->
  <g filter="url(#glow)">
    <rect x="55" y="82" width="45" height="16" rx="2" fill="rgba(0,245,255,0.15)" stroke="#00f5ff" stroke-width="0.5"/>
    <text x="62" y="94" font-family="Consolas, Monaco, monospace" font-size="10" fill="#00f5ff">{ }</text>

    <!-- 状态条 -->
    <rect x="105" y="85" width="3" height="10" fill="#bc13fe" opacity="0.8"/>
    <rect x="110" y="83" width="3" height="14" fill="#00f5ff" opacity="0.6"/>
  </g>

  <!-- 底层终端命令 -->
  <g filter="url(#glow)">
    <text x="55" y="135" font-family="Consolas, Monaco, monospace" font-size="9" fill="#bc13fe">$</text>
    <text x="62" y="135" font-family="Consolas, Monaco, monospace" font-size="9" fill="#e0f7ff">git push</text>

    <!-- 光标 -->
    <rect x="100" y="128" width="2" height="8" fill="#00f5ff"/>

    <!-- 结果条 -->
    <rect x="55" y="140" width="35" height="3" rx="1" fill="#00f5ff" opacity="0.4"/>
    <rect x="93" y="140" width="20" height="3" rx="1" fill="#bc13fe" opacity="0.4"/>
  </g>

  <!-- 悬浮数据粒子 -->
  <g opacity="0.5">
    <circle cx="140" cy="130" r="1.5" fill="#00f5ff"/>
    <circle cx="155" cy="115" r="1" fill="#bc13fe"/>
    <circle cx="145" cy="145" r="1" fill="#fff"/>
    <text x="150" y="100" font-family="monospace" font-size="14" fill="#bc13fe" opacity="0.3">}</text>
    <text x="45" y="90" font-family="monospace" font-size="12" fill="#00f5ff" opacity="0.2">{</text>
  </g>
</svg>
