<?xml version="1.0" standalone="no"?><!DOCTYPE svg PUBLIC "-//W3C//DTD SVG 1.1//EN" "http://www.w3.org/Graphics/SVG/1.1/DTD/svg11.dtd"><svg t="1769493242212" class="icon" viewBox="0 0 1024 1024" version="1.1" xmlns="http://www.w3.org/2000/svg" p-id="5401" width="32" height="32" xmlns:xlink="http://www.w3.org/1999/xlink"><path d="M 807.183 895.192 H 210.287 V 133.369 h 596.894 v 761.821 Z m -580.092 -16.8029 h 563.287 V 150.172 H 227.089 v 728.217 Z" fill="#5d8a00" p-id="5402"></path><path d="M 218.687 547.37 h 579.316 v 16.8029 H 218.687 Z M 512.741 878.906 c -37.4836 0 -74.7087 0 -99.267 -0.258507 c -13.8301 -0.129254 -26.4971 -8.143 -32.1843 -20.4222 c -4.91165 -10.5988 -6.33343 -21.3269 -4.00688 -31.538 c 3.48986 -16.1566 18.0955 -27.9188 34.8986 -28.1774 l 235.76 -1.93881 l 0.129254 16.8029 l -235.76 1.93881 c -8.91852 0.129254 -16.6737 6.33343 -18.6126 14.8643 c -1.4218 6.72121 -0.517016 13.7009 2.84358 20.9392 c 2.97284 6.4627 9.69404 10.5988 17.0615 10.728 c 68.2461 0.517016 233.302 0 234.984 0 v 16.8029 c -0.904778 0.129254 -69.0216 0.258507 -135.847 0.258507 Z" fill="#5d8a00" p-id="5403"></path><path d="M 593.395 804.972 h 16.8029 V 870.116 h -16.8029 Z" fill="#5d8a00" p-id="5404"></path><path d="M 476.291 797.992 c -12.2792 0 -23.3949 0 -32.7014 -0.129254 c -13.8301 -0.129254 -26.4971 -8.143 -32.1843 -20.4222 c -4.91165 -10.5988 -6.33343 -21.3269 -4.00688 -31.538 c 3.48986 -16.1566 18.0955 -27.9188 34.8986 -28.1774 l 235.76 -1.93881 l 0.129254 16.8029 l -235.76 1.93881 c -8.91852 0.129254 -16.6737 6.33343 -18.6126 14.8643 c -1.4218 6.72121 -0.517016 13.7009 2.84358 20.9392 c 2.97284 6.4627 9.69404 10.5988 17.0615 10.728 c 68.2461 0.517016 233.302 -1.16329 234.984 -1.29254 l 0.129254 16.8029 c -1.4218 0 -124.858 1.4218 -202.542 1.4218 Z" fill="#ff917d" p-id="5405"></path><path d="M 623.383 724.059 h 16.8029 v 65.144 h -16.8029 Z" fill="#ff917d" p-id="5406"></path><path d="M 449.278 716.433 c -12.2792 0 -23.3949 0 -32.7014 -0.129254 c -13.8301 -0.129254 -26.4971 -8.143 -32.1843 -20.4222 c -4.91165 -10.5988 -6.33343 -21.3269 -4.00688 -31.538 c 3.48986 -16.1566 18.0955 -27.9188 34.8986 -28.1774 l 235.76 -1.93881 l 0.129254 16.8029 l -235.889 1.93881 c -8.91852 0.129254 -16.6737 6.33343 -18.6126 14.8643 c -1.4218 6.72121 -0.517016 13.7009 2.84358 20.9392 c 2.97284 6.4627 9.69404 10.5988 17.0615 10.728 c 68.2461 0.517016 233.302 -1.16329 234.984 -1.29254 l 0.129254 16.8029 c -1.29254 0.129254 -124.729 1.4218 -202.412 1.4218 Z" fill="#5d8a00" p-id="5407"></path><path d="M 596.368 642.63 h 16.8029 v 65.144 h -16.8029 Z" fill="#5d8a00" p-id="5408"></path><path d="M 301.669 546.981 h -73.287 V 241.554 h 73.287 V 546.981 Z m -56.484 -16.8029 h 39.681 V 258.358 h -39.681 V 530.18 Z" fill="#ff917d" p-id="5409"></path><path d="M 236.783 281.493 H 291.846 v 16.8029 h -55.0621 Z" fill="#ff917d" p-id="5410"></path><path d="M 372.888 546.981 h -70.1848 V 241.554 h 68.763 l 1.4218 305.427 Z m -53.3819 -16.8029 h 36.4495 l -1.16329 -271.822 h -35.2864 V 530.18 Z" fill="#5d8a00" p-id="5411"></path><path d="M 311.104 281.493 h 50.6675 v 16.8029 h -50.6675 Z M 424.976 551.763 l -56.484 -301.421 l 69.0216 -12.9254 l 56.484 301.421 l -69.0216 12.9254 Z m -36.9667 -287.978 l 50.2797 268.461 l 36.062 -6.72121 l -50.2797 -268.461 l -36.062 6.72121 Z" fill="#5d8a00" p-id="5412"></path><path d="M 382.51 288.285 l 51.1976 -9.59968 l 3.09692 16.5162 l -51.1976 9.59968 Z" fill="#5d8a00" p-id="5413"></path><path d="M 558.753 553.702 l -62.6881 -12.6668 l 59.5861 -294.829 l 62.6881 12.6668 l -59.5861 294.829 Z m -42.9123 -25.7216 l 29.7284 6.07493 l 52.9941 -261.87 l -29.7284 -6.07493 l -52.9941 261.87 Z" fill="#ff917d" p-id="5414"></path><path d="M 552.42 304.513 l 3.33086 -16.4709 l 44.9766 9.09431 l -3.33086 16.4696 Z" fill="#ff917d" p-id="5415"></path><path d="M 618.341 554.479 l -56.8717 -11.3742 l 57.6473 -288.107 l 56.8717 11.3742 l -57.6473 288.107 Z m -36.9667 -24.5582 l 23.912 4.7824 L 656.342 279.554 l -23.912 -4.7824 L 581.375 529.921 Z" fill="#5d8a00" p-id="5416"></path><path d="M 616.348 312.316 l 3.29985 -16.4761 l 39.2867 7.87027 l -3.29985 16.4746 Z M 731.568 548.403 h -57.9058 V 254.608 h 57.9058 v 293.795 Z m -41.1027 -16.8029 h 24.2998 V 271.412 h -24.2998 v 260.188 Z" fill="#5d8a00" p-id="5417"></path><path d="M 682.062 294.547 h 40.0688 v 16.8029 h -40.0688 Z" fill="#5d8a00" p-id="5418"></path><path d="M 789.861 547.758 h -57.9058 V 253.962 h 57.9058 v 293.795 Z m -41.1027 -16.8029 h 24.2998 V 270.767 h -24.2998 v 260.188 Z" fill="#ff917d" p-id="5419"></path><path d="M 740.357 293.901 h 40.0688 v 16.8029 h -40.0688 Z" fill="#ff917d" p-id="5420"></path><path d="M 854.488 938.363 H 166.082 V 91.235 h 688.277 v 847.13 Z m -671.604 -16.8029 h 654.671 V 108.037 H 182.884 v 813.524 Z" fill="#5d8a00" p-id="5421"></path><path d="M 221.144 576.063 h 579.316 v 16.8029 H 221.144 Z" fill="#5d8a00" p-id="5422"></path></svg>